<?xml version="1.0" standalone="no"?>
<!DOCTYPE svg PUBLIC "-//W3C//DTD SVG 20010904//EN"
 "http://www.w3.org/TR/2001/REC-SVG-20010904/DTD/svg10.dtd">
<svg version="1.0" xmlns="http://www.w3.org/2000/svg"
 width="360.000000pt" height="360.000000pt" viewBox="0 0 360.000000 360.000000"
 preserveAspectRatio="xMidYMid meet">

<g transform="translate(0.000000,360.000000) scale(0.100000,-0.100000)"
fill="#FFC821" stroke="none">
<path d="M962 3109 c-24 -12 -54 -38 -68 -58 l-24 -36 0 -1187 c0 -943 -3
-1188 -12 -1189 -7 -1 -64 -1 -125 0 l-113 2 0 -180 0 -181 1030 0 1030 0 0
178 0 178 -112 1 -113 1 0 638 0 639 103 3 102 3 1 -486 c1 -267 3 -489 4
-495 1 -5 3 -20 4 -32 2 -33 72 -93 124 -107 92 -23 198 -6 278 45 72 45 69
17 69 664 0 319 3 580 8 580 4 0 14 6 23 13 14 11 15 31 9 162 -6 134 -9 155
-32 201 -34 66 -94 118 -182 160 -73 34 -153 57 -160 45 -2 -3 -7 -27 -11 -53
l-7 -47 43 -11 c24 -6 70 -23 102 -37 45 -20 56 -30 51 -42 -43 -100 -51 -301
-16 -410 22 -68 54 -111 84 -111 17 0 18 -23 18 -508 0 -435 -2 -511 -15 -529
-35 -49 -223 -76 -279 -40 -14 10 -29 30 -33 45 -5 15 -8 246 -8 514 0 308 -3
484 -9 478 -19 -19 -26 -10 -26 30 l0 40 -125 0 -125 0 0 506 c0 567 2 549
-72 601 l-41 28 -666 3 c-663 2 -666 2 -709 -19z m1172 -383 c62 -26 66 -41
66 -231 0 -190 -4 -205 -66 -231 -50 -21 -969 -21 -1019 0 -57 24 -65 54 -65
231 0 176 9 207 63 230 47 21 972 21 1021 1z m958 -307 l20 -26 -36 -56 c-34
-53 -50 -127 -27 -127 5 0 24 24 42 52 l34 53 3 -49 c6 -87 -31 -206 -69 -227
-53 -28 -95 59 -93 196 1 70 6 102 24 143 33 77 66 90 102 41z"/>
</g>
</svg>
