<?xml version="1.0" standalone="no"?>
<!DOCTYPE svg PUBLIC "-//W3C//DTD SVG 20010904//EN"
 "http://www.w3.org/TR/2001/REC-SVG-20010904/DTD/svg10.dtd">
<svg version="1.0" xmlns="http://www.w3.org/2000/svg"
 width="204.000000pt" height="204.000000pt" viewBox="0 0 204.000000 204.000000"
 preserveAspectRatio="xMidYMid meet">

<g transform="translate(0.000000,204.000000) scale(0.100000,-0.100000)"
fill="#F3C94E" stroke="none">
<path d="M945 1796 c-103 -30 -126 -39 -200 -83 -216 -129 -367 -362 -391
-602 l-7 -71 -128 0 c-71 0 -129 -2 -129 -5 0 -9 329 -443 342 -451 7 -4 24 7
40 27 47 55 318 416 318 423 0 3 -59 6 -131 6 l-130 0 7 48 c11 78 55 201 95
262 78 122 207 220 344 263 91 28 260 30 350 3 153 -45 312 -178 379 -317 122
-255 70 -544 -133 -732 -103 -95 -279 -165 -419 -167 -23 0 -42 -9 -63 -29
-37 -37 -38 -79 -3 -120 24 -29 30 -31 94 -31 247 0 500 140 641 355 116 176
163 396 125 585 -48 236 -179 427 -377 549 -131 81 -213 103 -394 107 -134 3
-159 1 -230 -20z"/>
<path d="M1059 1401 l-29 -29 0 -205 c0 -224 6 -259 51 -282 57 -30 345 -138
380 -142 74 -10 126 85 74 136 -11 11 -90 46 -175 79 l-155 61 -6 188 c-3 103
-6 189 -7 190 -9 11 -65 33 -82 33 -12 0 -35 -13 -51 -29z"/>
</g>
</svg>
